<svg width="16" height="16" viewBox="0 0 16 16" fill="none" xmlns="http://www.w3.org/2000/svg">
<g id="arrow right">
<path id="icon" d="M8.1952 4.47141C7.93485 4.21107 7.93485 3.78896 8.1952 3.52861C8.45555 3.26826 8.87766 3.26826 9.13801 3.52861L13.135 7.52558C13.137 7.52759 13.139 7.52962 13.1411 7.53166L13.3737 7.76431C13.5039 7.89448 13.5039 8.10554 13.3737 8.23571L13.1411 8.46836C13.139 8.4704 13.137 8.47243 13.135 8.47445L9.13801 12.4714C8.87766 12.7318 8.45555 12.7318 8.1952 12.4714C7.93485 12.2111 7.93485 11.789 8.1952 11.5286L11.0571 8.66668H3.33329C2.9651 8.66668 2.66663 8.3682 2.66663 8.00001C2.66663 7.63182 2.9651 7.33334 3.33329 7.33334H11.0571L8.1952 4.47141Z" fill="#005180"/>
</g>
</svg>
