<svg width="18" height="18" viewBox="0 0 18 18" fill="none" xmlns="http://www.w3.org/2000/svg">
<g id="fi-sr-time-check" clip-path="url(#clip0_481_18417)">
<path id="Vector" d="M14.2135 17.2506H14.1887C13.8055 17.2446 13.441 17.0819 13.1808 16.8006L11.7423 15.3899C11.4543 15.0921 11.461 14.6174 11.7588 14.3294C11.7595 14.3286 11.7603 14.3279 11.761 14.3271C12.0588 14.0414 12.5313 14.0496 12.8185 14.3451L14.2142 15.7124L16.72 13.2066C17.0125 12.9141 17.488 12.9141 17.7805 13.2066C18.073 13.4991 18.073 13.9746 17.7805 14.2671L15.2147 16.8329C14.9507 17.1006 14.59 17.2514 14.2135 17.2506Z" fill="#667085"/>
<path id="Vector_2" d="M10.5266 15.0113C10.5236 12.5385 12.5254 10.5315 14.9974 10.5278C15.9596 10.5263 16.8971 10.8353 17.6696 11.409C18.9994 6.62029 16.1951 1.66054 11.4071 0.330791C6.61911 -0.99896 1.66011 1.80454 0.330356 6.59329C-0.999394 11.382 1.80486 16.3425 6.59286 17.6723C8.16786 18.1095 9.83211 18.1095 11.4071 17.6723C10.8356 16.9028 10.5266 15.9698 10.5266 15.0113ZM9.75036 9.01654C9.75036 9.21604 9.67086 9.40654 9.52986 9.54754L7.27611 11.802C6.97761 12.09 6.50211 12.0818 6.21411 11.7833C5.93286 11.4923 5.93286 11.0303 6.21411 10.7393L8.24811 8.70529V5.25979C8.24811 4.84504 8.58411 4.50829 8.99961 4.50829C9.41436 4.50829 9.75036 4.84504 9.75036 5.25979V9.01654Z" fill="#667085"/>
</g>
<defs>
<clipPath id="clip0_481_18417">
<rect width="18" height="18" fill="white" transform="translate(0.000244141)"/>
</clipPath>
</defs>
</svg>
