<svg width="20" height="20" viewBox="0 0 20 20" fill="none" xmlns="http://www.w3.org/2000/svg">
<g id="Outline/Interface/Other 2">
<path id="Icon" d="M10 4.50003C10.2761 4.50003 10.5 4.72389 10.5 5.00003C10.5 5.27617 10.2761 5.50003 10 5.50003C9.72386 5.50003 9.5 5.27617 9.5 5.00003C9.5 4.72389 9.72386 4.50003 10 4.50003ZM10 9.50003C10.2761 9.50003 10.5 9.72389 10.5 10C10.5 10.2762 10.2761 10.5 10 10.5C9.72386 10.5 9.5 10.2762 9.5 10C9.5 9.72389 9.72386 9.50003 10 9.50003ZM10 14.5C10.2761 14.5 10.5 14.7239 10.5 15C10.5 15.2762 10.2761 15.5 10 15.5C9.72386 15.5 9.5 15.2762 9.5 15C9.5 14.7239 9.72386 14.5 10 14.5Z" fill="#3D4999" stroke="#3D4999" stroke-width="1.5"/>
</g>
</svg>
