<svg width="21" height="20" viewBox="0 0 21 20" fill="none" xmlns="http://www.w3.org/2000/svg">
<g id="Contact us/Variant3">
<path id="Vector (Stroke)" fill-rule="evenodd" clip-rule="evenodd" d="M10.1667 3C10.581 3 10.9167 3.33579 10.9167 3.75L10.9167 12.4393L12.8864 10.4697C13.1793 10.1768 13.6542 10.1768 13.9471 10.4697C14.24 10.7626 14.24 11.2374 13.9471 11.5303L10.6971 14.7803C10.4042 15.0732 9.92931 15.0732 9.63642 14.7803L6.38642 11.5303C6.09352 11.2374 6.09352 10.7626 6.38642 10.4697C6.67931 10.1768 7.15418 10.1768 7.44708 10.4697L9.41675 12.4393L9.41675 3.75C9.41675 3.33579 9.75253 3 10.1667 3ZM4.16675 16.25C4.16675 15.8358 4.50253 15.5 4.91675 15.5H15.4167C15.831 15.5 16.1667 15.8358 16.1667 16.25C16.1667 16.6642 15.831 17 15.4167 17H4.91675C4.50253 17 4.16675 16.6642 4.16675 16.25Z" fill="#ECEDF5"/>
</g>
</svg>
