<svg width="19" height="18" viewBox="0 0 19 18" fill="none" xmlns="http://www.w3.org/2000/svg">
<g id="fi-sr-marker" clip-path="url(#clip0_481_18397)">
<path id="Vector" d="M9.66666 0.0318451C7.68211 0.0340284 5.77947 0.823302 4.37611 2.22652C2.97275 3.62973 2.18329 5.5323 2.18091 7.51685C2.18091 9.44435 3.67341 12.4608 6.61716 16.4823C6.9676 16.9624 7.42645 17.353 7.95636 17.6223C8.48627 17.8915 9.07226 18.0319 9.66666 18.0319C10.2611 18.0319 10.847 17.8915 11.377 17.6223C11.9069 17.353 12.3657 16.9624 12.7162 16.4823C15.6599 12.4608 17.1524 9.44435 17.1524 7.51685C17.15 5.5323 16.3606 3.62973 14.9572 2.22652C13.5539 0.823302 11.6512 0.0340284 9.66666 0.0318451ZM9.66666 10.5003C9.07331 10.5003 8.4933 10.3244 7.99995 9.99475C7.5066 9.66511 7.12208 9.19657 6.89502 8.6484C6.66796 8.10022 6.60855 7.49702 6.7243 6.91507C6.84006 6.33313 7.12578 5.79858 7.54534 5.37902C7.9649 4.95947 8.49944 4.67375 9.08139 4.55799C9.66333 4.44223 10.2665 4.50164 10.8147 4.72871C11.3629 4.95577 11.8314 5.34029 12.1611 5.83363C12.4907 6.32698 12.6667 6.907 12.6667 7.50035C12.6667 8.29599 12.3506 9.05906 11.788 9.62167C11.2254 10.1843 10.4623 10.5003 9.66666 10.5003Z" fill="#667085"/>
</g>
<defs>
<clipPath id="clip0_481_18397">
<rect width="18" height="18" fill="white" transform="translate(0.666748)"/>
</clipPath>
</defs>
</svg>
