<svg width="20" height="20" viewBox="0 0 20 20" fill="none" xmlns="http://www.w3.org/2000/svg">
<g id="Outline/Interface/Other 2">
<path id="Icon" d="M10 4.50002C10.2761 4.50002 10.5 4.72388 10.5 5.00002C10.5 5.27617 10.2761 5.50002 10 5.50002C9.72386 5.50002 9.5 5.27617 9.5 5.00002C9.5 4.72388 9.72386 4.50002 10 4.50002ZM10 9.50002C10.2761 9.50002 10.5 9.72388 10.5 10C10.5 10.2762 10.2761 10.5 10 10.5C9.72386 10.5 9.5 10.2762 9.5 10C9.5 9.72388 9.72386 9.50002 10 9.50002ZM10 14.5C10.2761 14.5 10.5 14.7239 10.5 15C10.5 15.2762 10.2761 15.5 10 15.5C9.72386 15.5 9.5 15.2762 9.5 15C9.5 14.7239 9.72386 14.5 10 14.5Z" fill="#FF6600" stroke="#FF6600" stroke-width="1.5"/>
</g>
</svg>
