<svg width="18" height="18" viewBox="0 0 18 18" fill="none" xmlns="http://www.w3.org/2000/svg">
<g id="fi-sr-smartphone" clip-path="url(#clip0_481_18386)">
<path id="Vector" d="M11.2502 -7.62939e-06H6.75024C5.75605 0.00118326 4.80291 0.396654 4.09991 1.09966C3.39691 1.80266 3.00144 2.7558 3.00024 3.74999V12H15.0002V3.74999C14.9991 2.7558 14.6036 1.80266 13.9006 1.09966C13.1976 0.396654 12.2444 0.00118326 11.2502 -7.62939e-06V-7.62939e-06Z" fill="#667085"/>
<path id="Vector_2" d="M3.00024 14.25C3.00144 15.2442 3.39691 16.1973 4.09991 16.9003C4.80291 17.6033 5.75605 17.9988 6.75024 18H11.2502C12.2444 17.9988 13.1976 17.6033 13.9006 16.9003C14.6036 16.1973 14.9991 15.2442 15.0002 14.25V13.5H3.00024V14.25ZM9.00024 15C9.14858 15 9.29359 15.044 9.41692 15.1264C9.54026 15.2088 9.63639 15.3259 9.69315 15.463C9.74992 15.6 9.76477 15.7508 9.73583 15.8963C9.70689 16.0418 9.63546 16.1754 9.53057 16.2803C9.42568 16.3852 9.29205 16.4567 9.14656 16.4856C9.00108 16.5145 8.85028 16.4997 8.71323 16.4429C8.57619 16.3861 8.45905 16.29 8.37664 16.1667C8.29423 16.0433 8.25024 15.8983 8.25024 15.75C8.25024 15.5511 8.32926 15.3603 8.46991 15.2197C8.61057 15.079 8.80133 15 9.00024 15Z" fill="#667085"/>
</g>
<defs>
<clipPath id="clip0_481_18386">
<rect width="18" height="18" fill="white" transform="translate(0.000244141)"/>
</clipPath>
</defs>
</svg>
