<svg width="16" height="16" viewBox="0 0 16 16" fill="none" xmlns="http://www.w3.org/2000/svg">
<g id="Group">
<path id="Vector" d="M0.667566 3.16716H2.49138C2.85135 4.49159 4.21681 5.27345 5.54124 4.91349C6.39187 4.68229 7.05637 4.01779 7.28756 3.16716H15.3328C15.7009 3.16716 15.9994 2.86872 15.9994 2.50057C15.9994 2.13242 15.7009 1.83398 15.3328 1.83398H7.28756C6.9276 0.509519 5.56214 -0.272341 4.23771 0.0876234C3.38708 0.318819 2.72258 0.983316 2.49138 1.83395H0.667566C0.299416 1.83395 0.000976562 2.13239 0.000976562 2.50054C0.000976562 2.86869 0.299416 3.16716 0.667566 3.16716Z" fill="#858D9D"/>
<path id="Vector_2" d="M15.3328 7.33373H13.5089C13.1497 6.00949 11.785 5.22719 10.4607 5.5864C9.60943 5.81735 8.94437 6.48238 8.71342 7.33373H0.667566C0.299416 7.33373 0.000976562 7.63217 0.000976562 8.00032C0.000976562 8.36847 0.299416 8.66691 0.667566 8.66691H8.71342C9.07267 9.99115 10.4374 10.7734 11.7616 10.4142C12.6129 10.1833 13.278 9.51826 13.5089 8.66691H15.3328C15.7009 8.66691 15.9994 8.36847 15.9994 8.00032C15.9994 7.63217 15.7009 7.33373 15.3328 7.33373Z" fill="#858D9D"/>
<path id="Vector_3" d="M15.3328 12.8329H7.28756C6.9276 11.5085 5.56214 10.7266 4.23771 11.0866C3.38708 11.3178 2.72258 11.9823 2.49138 12.8329H0.667566C0.299416 12.8329 0.000976562 13.1313 0.000976562 13.4995C0.000976562 13.8676 0.299416 14.1661 0.667566 14.1661H2.49138C2.85135 15.4905 4.21681 16.2723 5.54124 15.9124C6.39187 15.6812 7.05637 15.0167 7.28756 14.1661H15.3328C15.7009 14.1661 15.9994 13.8676 15.9994 13.4995C15.9994 13.1313 15.7009 12.8329 15.3328 12.8329Z" fill="#858D9D"/>
</g>
</svg>
