<svg width="25" height="24" viewBox="0 0 25 24" fill="none" xmlns="http://www.w3.org/2000/svg">
<g id="User_cicrle_duotone">
<path id="Rectangle 1" d="M3.33331 12C3.33331 7.02944 7.36275 3 12.3333 3C17.3039 3 21.3333 7.02944 21.3333 12C21.3333 16.9706 17.3039 21 12.3333 21C7.36275 21 3.33331 16.9706 3.33331 12Z" fill="#7E869E" fill-opacity="0.25"/>
<circle id="Ellipse 46" cx="12.3333" cy="10" r="4" fill="#2D9E54"/>
<path id="Intersect" fill-rule="evenodd" clip-rule="evenodd" d="M18.5542 18.2462C18.6124 18.3426 18.5946 18.466 18.5128 18.5432C16.9008 20.0662 14.7261 21 12.3333 21C9.94059 21 7.76595 20.0663 6.15388 18.5433C6.07208 18.466 6.05433 18.3427 6.11249 18.2463C7.27668 16.318 9.62547 15 12.3334 15C15.0413 15 17.39 16.3179 18.5542 18.2462Z" fill="#2D9E54"/>
</g>
</svg>
