<svg width="25" height="24" viewBox="0 0 25 24" fill="none" xmlns="http://www.w3.org/2000/svg">
<g id="User_cicrle_duotone">
<path id="Rectangle 1" d="M3.66675 12C3.66675 7.02944 7.69619 3 12.6667 3C17.6373 3 21.6667 7.02944 21.6667 12C21.6667 16.9706 17.6373 21 12.6667 21C7.69619 21 3.66675 16.9706 3.66675 12Z" fill="#7E869E" fill-opacity="0.25"/>
<circle id="Ellipse 46" cx="12.6667" cy="10" r="4" fill="#54A6FF"/>
<path id="Intersect" fill-rule="evenodd" clip-rule="evenodd" d="M18.8877 18.2462C18.9459 18.3426 18.9281 18.466 18.8463 18.5432C17.2343 20.0662 15.0596 21 12.6668 21C10.2741 21 8.09944 20.0663 6.48738 18.5433C6.40557 18.466 6.38782 18.3427 6.44599 18.2463C7.61018 16.318 9.95896 15 12.6669 15C15.3747 15 17.7235 16.3179 18.8877 18.2462Z" fill="#54A6FF"/>
</g>
</svg>
