<svg width="16" height="16" viewBox="0 0 16 16" fill="none" xmlns="http://www.w3.org/2000/svg">
<g id="clock">
<g id="icon">
<path d="M8.00004 3.99998C8.36823 3.99998 8.66671 4.29846 8.66671 4.66665V7.33331H10C10.3682 7.33331 10.6667 7.63179 10.6667 7.99998C10.6667 8.36817 10.3682 8.66665 10 8.66665H8.00004C7.63185 8.66665 7.33337 8.36817 7.33337 7.99998V4.66665C7.33337 4.29846 7.63185 3.99998 8.00004 3.99998Z" fill="#667085"/>
<path fill-rule="evenodd" clip-rule="evenodd" d="M8.00004 14.6666C11.6819 14.6666 14.6667 11.6819 14.6667 7.99998C14.6667 4.31808 11.6819 1.33331 8.00004 1.33331C4.31814 1.33331 1.33337 4.31808 1.33337 7.99998C1.33337 11.6819 4.31814 14.6666 8.00004 14.6666ZM8.00004 13.3333C10.9456 13.3333 13.3334 10.9455 13.3334 7.99998C13.3334 5.05446 10.9456 2.66665 8.00004 2.66665C5.05452 2.66665 2.66671 5.05446 2.66671 7.99998C2.66671 10.9455 5.05452 13.3333 8.00004 13.3333Z" fill="#667085"/>
</g>
</g>
</svg>
