<svg width="19" height="18" viewBox="0 0 19 18" fill="none" xmlns="http://www.w3.org/2000/svg">
<g id="fi-sr-envelope" clip-path="url(#clip0_481_18376)">
<path id="Vector" d="M18.299 4.15638L11.9855 10.4699C11.2815 11.1721 10.3278 11.5664 9.3335 11.5664C8.33919 11.5664 7.38547 11.1721 6.6815 10.4699L0.367996 4.15638C0.357496 4.27488 0.333496 4.38213 0.333496 4.49988V13.4999C0.334687 14.4941 0.730158 15.4472 1.43316 16.1502C2.13616 16.8532 3.0893 17.2487 4.0835 17.2499H14.5835C15.5777 17.2487 16.5308 16.8532 17.2338 16.1502C17.9368 15.4472 18.3323 14.4941 18.3335 13.4999V4.49988C18.3335 4.38213 18.3095 4.27488 18.299 4.15638Z" fill="#667085"/>
<path id="Vector_2" d="M10.9251 9.40938L17.7756 2.55813C17.4437 2.00787 16.9757 1.55241 16.4166 1.23568C15.8575 0.918945 15.2262 0.751633 14.5836 0.749878H4.0836C3.44102 0.751633 2.80973 0.918945 2.25062 1.23568C1.69152 1.55241 1.22346 2.00787 0.891602 2.55813L7.7421 9.40938C8.16478 9.83036 8.73704 10.0667 9.3336 10.0667C9.93017 10.0667 10.5024 9.83036 10.9251 9.40938Z" fill="#667085"/>
</g>
<defs>
<clipPath id="clip0_481_18376">
<rect width="18" height="18" fill="white" transform="translate(0.333496)"/>
</clipPath>
</defs>
</svg>
