<svg width="35" height="37" viewBox="0 0 35 37" fill="none" xmlns="http://www.w3.org/2000/svg">
<g id="Frame 2">
<g id="Group 39512">
<g id="Group 39518">
<path id="Rectangle 4483" d="M0.5 15.3076C0.5 6.85345 7.35345 0 15.8076 0V21.1456C15.8076 29.5997 8.95416 36.4532 0.5 36.4532V15.3076Z" fill="#00D4FF"/>
<path id="Rectangle 4484" d="M18.0286 8.31804C18.0286 3.72411 21.7527 0 26.3466 0C30.9405 0 34.6646 3.72411 34.6646 8.31803V8.79828C34.6646 13.3922 30.9405 17.1163 26.3466 17.1163C21.7527 17.1163 18.0286 13.3922 18.0286 8.79828V8.31804Z" fill="#4CBFFF"/>
<path id="Rectangle 4485" d="M18.0286 27.6552C18.0286 23.0613 21.7527 19.3372 26.3466 19.3372C30.9405 19.3372 34.6646 23.0613 34.6646 27.6552V28.1354C34.6646 32.7294 30.9405 36.4535 26.3466 36.4535C21.7527 36.4535 18.0286 32.7294 18.0286 28.1354V27.6552Z" fill="#962DFF"/>
</g>
</g>
</g>
</svg>
