<svg width="21" height="20" viewBox="0 0 21 20" fill="none" xmlns="http://www.w3.org/2000/svg">
<g id="Iconly/Bold/Logout">
<g id="Logout">
<path id="Vector" d="M9.49228 0.00109863C11.9748 0.00109863 13.9995 1.9911 13.9995 4.4411V9.2311H7.89489C7.45739 9.2311 7.11146 9.5711 7.11146 10.0011C7.11146 10.4211 7.45739 10.7711 7.89489 10.7711H13.9995V15.5511C13.9995 18.0011 11.9748 20.0011 9.47193 20.0011H4.51698C2.02425 20.0011 -0.000457764 18.0111 -0.000457764 15.5611V4.4511C-0.000457764 1.9911 2.03443 0.00109863 4.52716 0.00109863H9.49228ZM16.5397 6.5513C16.8397 6.2413 17.3297 6.2413 17.6297 6.5413L20.5497 9.4513C20.6997 9.6013 20.7797 9.7913 20.7797 10.0013C20.7797 10.2013 20.6997 10.4013 20.5497 10.5413L17.6297 13.4513C17.4797 13.6013 17.2797 13.6813 17.0897 13.6813C16.8897 13.6813 16.6897 13.6013 16.5397 13.4513C16.2397 13.1513 16.2397 12.6613 16.5397 12.3613L18.1397 10.7713H13.9997V9.2313H18.1397L16.5397 7.6413C16.2397 7.3413 16.2397 6.8513 16.5397 6.5513Z" fill="#E63D3D"/>
</g>
</g>
</svg>
