<svg width="26" height="24" viewBox="0 0 26 24" fill="none" xmlns="http://www.w3.org/2000/svg">
<g id="icn/general/more">
<path id="more" fill-rule="evenodd" clip-rule="evenodd" d="M15.0063 5C15.0063 6.10457 14.0465 7 12.8625 7C11.6785 7 10.7188 6.10457 10.7188 5C10.7188 3.89543 11.6785 3 12.8625 3C14.0465 3 15.0063 3.89543 15.0063 5ZM15.0063 12C15.0063 13.1046 14.0465 14 12.8625 14C11.6785 14 10.7188 13.1046 10.7188 12C10.7188 10.8954 11.6785 10 12.8625 10C14.0465 10 15.0063 10.8954 15.0063 12ZM12.8625 21C14.0465 21 15.0063 20.1046 15.0063 19C15.0063 17.8954 14.0465 17 12.8625 17C11.6785 17 10.7188 17.8954 10.7188 19C10.7188 20.1046 11.6785 21 12.8625 21Z" fill="#0A1629"/>
</g>
</svg>
