<svg width="12" height="12" viewBox="0 0 12 12" fill="none" xmlns="http://www.w3.org/2000/svg">
<g id="nigeria-naira-currency-symbol">
<g id="Group">
<path id="Vector" d="M11.5543 6.77238H9.91627V4.8493H11.5543C11.8005 4.8493 12 4.60582 12 4.3051C12 4.00434 11.8005 3.76072 11.5543 3.76072H9.91627V1.09234C9.91627 0.702821 9.85326 0.416925 9.72904 0.242771C9.61099 0.0770935 9.45577 0 9.24083 0C9.03573 0 8.88636 0.0765618 8.77059 0.241205C8.64782 0.415537 8.58551 0.701964 8.58551 1.09251V3.76104H5.5042L4.19406 1.3393C4.08193 1.12317 3.9765 0.920721 3.87412 0.726392C3.78195 0.551381 3.69204 0.408891 3.60712 0.302496C3.53194 0.2083 3.44627 0.135401 3.34606 0.0793679C3.25152 0.026643 3.13131 0.000177242 2.98911 0.000177242C2.80773 0.000177242 2.64308 0.0608773 2.48542 0.185586C2.32941 0.308935 2.22156 0.461439 2.15569 0.651839C2.09788 0.832787 2.06729 1.11006 2.06729 1.46797V3.76086H0.445482C0.199395 3.76089 0 4.00452 0 4.30524C0 4.60597 0.199395 4.84945 0.445507 4.84945H2.06731V6.77274H0.445507C0.199395 6.77274 0 7.0163 0 7.31712C0 7.61775 0.199395 7.86114 0.445507 7.86114H2.06731V10.9078C2.06731 11.2857 2.13233 11.5687 2.26112 11.7486C2.3836 11.92 2.53888 11.9996 2.74977 11.9996C2.95322 11.9996 3.1073 11.9197 3.23507 11.7479C3.36592 11.5719 3.4321 11.2891 3.4321 10.9078V7.86114H6.22034L7.72919 10.6874C7.83411 10.8742 7.94244 11.0628 8.05048 11.2477C8.14795 11.4137 8.2543 11.56 8.3665 11.6822C8.46755 11.7928 8.57588 11.8738 8.68849 11.9232C8.80441 11.9742 8.9399 12 9.09025 12C9.49831 12 9.91622 11.8474 9.91622 10.7157V7.86114H11.5543C11.8004 7.86114 12 7.6174 12 7.31676C12 7.01613 11.8005 6.77238 11.5543 6.77238ZM8.58548 4.84927V6.77235H7.13364L6.09336 4.84927H8.58548ZM3.43212 2.63958L4.03084 3.76072H3.43212V2.63958ZM3.43212 6.77238V4.8493H4.61219L5.63905 6.77238H3.43212ZM8.58548 9.45656L7.72264 7.86114H8.58548V9.45656Z" fill="black"/>
</g>
</g>
</svg>
