<svg width="14" height="14" viewBox="0 0 14 14" fill="none" xmlns="http://www.w3.org/2000/svg">
<g id="icon/action/lock_24px">
<path id="icon/action/lock_24px_2" fill-rule="evenodd" clip-rule="evenodd" d="M9.91634 4.95833H10.4997C11.1413 4.95833 11.6663 5.48333 11.6663 6.125V11.9583C11.6663 12.6 11.1413 13.125 10.4997 13.125H3.49967C2.85801 13.125 2.33301 12.6 2.33301 11.9583V6.125C2.33301 5.48333 2.85801 4.95833 3.49967 4.95833H4.08301V3.79167C4.08301 2.18167 5.38967 0.875 6.99967 0.875C8.60967 0.875 9.91634 2.18167 9.91634 3.79167V4.95833ZM6.99967 2.04167C6.03134 2.04167 5.24967 2.82333 5.24967 3.79167V4.95833H8.74967V3.79167C8.74967 2.82333 7.96801 2.04167 6.99967 2.04167ZM3.49967 11.9583V6.125H10.4997V11.9583H3.49967ZM8.16634 9.04167C8.16634 9.68333 7.64134 10.2083 6.99967 10.2083C6.35801 10.2083 5.83301 9.68333 5.83301 9.04167C5.83301 8.4 6.35801 7.875 6.99967 7.875C7.64134 7.875 8.16634 8.4 8.16634 9.04167Z" fill="#5874FB"/>
</g>
</svg>
