<svg width="19" height="18" viewBox="0 0 19 18" fill="none" xmlns="http://www.w3.org/2000/svg">
<g id="fi-sr-id-badge" clip-path="url(#clip0_481_18407)">
<path id="Vector" d="M14.5835 3H11.5835V2.25C11.5835 1.65326 11.3464 1.08097 10.9245 0.65901C10.5025 0.237053 9.93023 0 9.3335 0C8.73676 0 8.16446 0.237053 7.74251 0.65901C7.32055 1.08097 7.0835 1.65326 7.0835 2.25V3H4.0835C3.0893 3.00119 2.13616 3.39666 1.43316 4.09966C0.730158 4.80267 0.334687 5.7558 0.333496 6.75L0.333496 14.25C0.334687 15.2442 0.730158 16.1973 1.43316 16.9003C2.13616 17.6033 3.0893 17.9988 4.0835 18H14.5835C15.5777 17.9988 16.5308 17.6033 17.2338 16.9003C17.9368 16.1973 18.3323 15.2442 18.3335 14.25V6.75C18.3323 5.7558 17.9368 4.80267 17.2338 4.09966C16.5308 3.39666 15.5777 3.00119 14.5835 3ZM7.8335 13.5C7.8335 13.6989 7.75448 13.8897 7.61383 14.0303C7.47317 14.171 7.28241 14.25 7.0835 14.25H3.3335C3.13458 14.25 2.94382 14.171 2.80317 14.0303C2.66251 13.8897 2.5835 13.6989 2.5835 13.5V7.5C2.5835 7.30109 2.66251 7.11032 2.80317 6.96967C2.94382 6.82902 3.13458 6.75 3.3335 6.75H7.0835C7.28241 6.75 7.47317 6.82902 7.61383 6.96967C7.75448 7.11032 7.8335 7.30109 7.8335 7.5V13.5ZM9.3335 4.5C9.13458 4.5 8.94382 4.42098 8.80317 4.28033C8.66251 4.13968 8.5835 3.94891 8.5835 3.75V2.25C8.5835 2.05109 8.66251 1.86032 8.80317 1.71967C8.94382 1.57902 9.13458 1.5 9.3335 1.5C9.53241 1.5 9.72317 1.57902 9.86383 1.71967C10.0045 1.86032 10.0835 2.05109 10.0835 2.25V3.75C10.0835 3.94891 10.0045 4.13968 9.86383 4.28033C9.72317 4.42098 9.53241 4.5 9.3335 4.5ZM13.8335 14.25H10.8335C10.6346 14.25 10.4438 14.171 10.3032 14.0303C10.1625 13.8897 10.0835 13.6989 10.0835 13.5C10.0835 13.3011 10.1625 13.1103 10.3032 12.9697C10.4438 12.829 10.6346 12.75 10.8335 12.75H13.8335C14.0324 12.75 14.2232 12.829 14.3638 12.9697C14.5045 13.1103 14.5835 13.3011 14.5835 13.5C14.5835 13.6989 14.5045 13.8897 14.3638 14.0303C14.2232 14.171 14.0324 14.25 13.8335 14.25ZM15.3335 11.25H10.8335C10.6346 11.25 10.4438 11.171 10.3032 11.0303C10.1625 10.8897 10.0835 10.6989 10.0835 10.5C10.0835 10.3011 10.1625 10.1103 10.3032 9.96967C10.4438 9.82902 10.6346 9.75 10.8335 9.75H15.3335C15.5324 9.75 15.7232 9.82902 15.8638 9.96967C16.0045 10.1103 16.0835 10.3011 16.0835 10.5C16.0835 10.6989 16.0045 10.8897 15.8638 11.0303C15.7232 11.171 15.5324 11.25 15.3335 11.25ZM15.3335 8.25H10.8335C10.6346 8.25 10.4438 8.17098 10.3032 8.03033C10.1625 7.88968 10.0835 7.69891 10.0835 7.5C10.0835 7.30109 10.1625 7.11032 10.3032 6.96967C10.4438 6.82902 10.6346 6.75 10.8335 6.75H15.3335C15.5324 6.75 15.7232 6.82902 15.8638 6.96967C16.0045 7.11032 16.0835 7.30109 16.0835 7.5C16.0835 7.69891 16.0045 7.88968 15.8638 8.03033C15.7232 8.17098 15.5324 8.25 15.3335 8.25ZM4.0835 8.25H6.3335V12.75H4.0835V8.25Z" fill="#667085"/>
</g>
<defs>
<clipPath id="clip0_481_18407">
<rect width="18" height="18" fill="white" transform="translate(0.333496)"/>
</clipPath>
</defs>
</svg>
