<svg width="20" height="20" viewBox="0 0 20 20" fill="none" xmlns="http://www.w3.org/2000/svg">
<g id="settings-1389-svgrepo-com 1" clip-path="url(#clip0_1344_2875)">
<g id="Page-1">
<g id="Dribbble-Light-Preview">
<g id="icons">
<path id="settings-[#1389]" fill-rule="evenodd" clip-rule="evenodd" d="M10 6.19047C10 5.85428 10.072 5.23809 10.184 5.23809H0V7.14285H10.184C10.072 7.14285 10 6.52666 10 6.19047ZM17.816 5.23809C17.403 4.28571 16.304 3.33333 15 3.33333C13.343 3.33333 12 4.61238 12 6.19047C12 7.76857 13.343 9.04761 15 9.04761C16.304 9.04761 17.403 8.09523 17.816 7.14285H20V5.23809H17.816ZM10 13.8095C10 14.1457 9.928 14.4629 9.816 14.7619H20V12.8571H9.816C9.928 12.8571 10 13.4733 10 13.8095ZM8 13.8095C8 15.3876 6.657 16.6667 5 16.6667C3.696 16.6667 2.597 15.7143 2.184 14.7619H0V12.8571H2.184C2.597 11.9048 3.696 10.9524 5 10.9524C6.657 10.9524 8 12.2314 8 13.8095Z" fill="#3D4999"/>
</g>
</g>
</g>
</g>
<defs>
<clipPath id="clip0_1344_2875">
<rect width="20" height="20" fill="white"/>
</clipPath>
</defs>
</svg>
