<svg width="20" height="20" viewBox="0 0 20 20" fill="none" xmlns="http://www.w3.org/2000/svg">
<g id="icon / upload">
<g id="icon">
<path d="M10.5892 1.91076C10.2638 1.58533 9.73614 1.58533 9.4107 1.91076L6.07737 5.2441C5.75193 5.56953 5.75193 6.09717 6.07737 6.42261C6.40281 6.74805 6.93045 6.74805 7.25588 6.42261L9.16663 4.51186V14.1667C9.16663 14.6269 9.53972 15 9.99996 15C10.4602 15 10.8333 14.6269 10.8333 14.1667V4.51186L12.744 6.42261C13.0695 6.74805 13.5971 6.74805 13.9225 6.42261C14.248 6.09717 14.248 5.56953 13.9225 5.2441L10.5892 1.91076Z" fill="#424242"/>
<path d="M3.33329 14.5834C3.33329 14.1231 2.9602 13.75 2.49996 13.75C2.03972 13.75 1.66663 14.1231 1.66663 14.5834V15.8334C1.66663 17.6743 3.15901 19.1667 4.99996 19.1667H15C16.8409 19.1667 18.3333 17.6743 18.3333 15.8334V14.5834C18.3333 14.1231 17.9602 13.75 17.5 13.75C17.0397 13.75 16.6666 14.1231 16.6666 14.5834V15.8334C16.6666 16.7538 15.9204 17.5 15 17.5H4.99996C4.07948 17.5 3.33329 16.7538 3.33329 15.8334V14.5834Z" fill="#424242"/>
</g>
</g>
</svg>
